<svg width="73" height="73" viewBox="0 0 73 73" fill="none" xmlns="http://www.w3.org/2000/svg">
<g clip-path="url(#clip0_13_37)">
<path d="M25.0938 43.3939C25.4405 47.7466 28.8806 51.1365 35.0491 51.538V54.75H37.7866V51.5152C44.1741 51.0681 47.9062 47.6553 47.9062 42.7004C47.9062 38.1973 45.0501 35.8749 39.9447 34.6704L37.7866 34.1594V25.4131C40.5241 25.7234 42.267 27.2199 42.6867 29.2913H47.4865C47.1397 25.0983 43.5445 21.8179 37.7866 21.462V18.25H35.0491V21.5304C29.5969 22.0642 25.8785 25.3447 25.8785 29.9848C25.8785 34.091 28.6434 36.7008 33.2378 37.7729L35.0491 38.2201V47.5002C32.2432 47.0759 30.3862 45.5383 29.9665 43.3939H25.0938V43.3939ZM35.0263 33.5116C32.3344 32.8865 30.8744 31.6136 30.8744 29.6973C30.8744 27.5529 32.4485 25.9469 35.0491 25.477V33.507H35.0263V33.5116ZM38.1836 38.9546C41.4549 39.712 42.9651 40.9393 42.9651 43.1065C42.9651 45.5794 41.0853 47.2766 37.7866 47.5869V38.8634L38.1836 38.9546V38.9546Z" fill="#8A31A0"/>
<path d="M36.5 68.4375C28.0296 68.4375 19.9062 65.0727 13.9168 59.0832C7.92733 53.0938 4.5625 44.9704 4.5625 36.5C4.5625 28.0296 7.92733 19.9062 13.9168 13.9168C19.9062 7.92733 28.0296 4.5625 36.5 4.5625C44.9704 4.5625 53.0938 7.92733 59.0832 13.9168C65.0727 19.9062 68.4375 28.0296 68.4375 36.5C68.4375 44.9704 65.0727 53.0938 59.0832 59.0832C53.0938 65.0727 44.9704 68.4375 36.5 68.4375ZM36.5 73C46.1804 73 55.4643 69.1545 62.3094 62.3094C69.1545 55.4643 73 46.1804 73 36.5C73 26.8196 69.1545 17.5357 62.3094 10.6906C55.4643 3.84553 46.1804 0 36.5 0C26.8196 0 17.5357 3.84553 10.6906 10.6906C3.84553 17.5357 0 26.8196 0 36.5C0 46.1804 3.84553 55.4643 10.6906 62.3094C17.5357 69.1545 26.8196 73 36.5 73V73Z" fill="#8A31A0"/>
<path d="M36.5 61.5938C29.8447 61.5938 23.462 58.95 18.756 54.244C14.05 49.538 11.4063 43.1553 11.4062 36.5C11.4062 29.8447 14.05 23.462 18.756 18.756C23.462 14.05 29.8447 11.4063 36.5 11.4062C43.1553 11.4063 49.538 14.05 54.244 18.756C58.95 23.462 61.5938 29.8447 61.5938 36.5C61.5938 43.1553 58.95 49.538 54.244 54.244C49.538 58.95 43.1553 61.5938 36.5 61.5938ZM36.5 63.875C40.0949 63.875 43.6547 63.1669 46.976 61.7912C50.2972 60.4155 53.315 58.3991 55.857 55.857C58.3991 53.315 60.4155 50.2972 61.7912 46.976C63.1669 43.6547 63.875 40.0949 63.875 36.5C63.875 32.9051 63.1669 29.3453 61.7912 26.024C60.4155 22.7028 58.3991 19.685 55.857 17.143C53.315 14.6009 50.2972 12.5845 46.976 11.2088C43.6547 9.83308 40.0949 9.125 36.5 9.125C29.2397 9.125 22.2768 12.0091 17.143 17.143C12.0091 22.2768 9.125 29.2397 9.125 36.5C9.125 43.7603 12.0091 50.7232 17.143 55.857C22.2768 60.9909 29.2397 63.875 36.5 63.875V63.875Z" fill="#8A31A0"/>
</g>
<defs>
<clipPath id="clip0_13_37">
<rect width="73" height="73" fill="white"/>
</clipPath>
</defs>
</svg>
