<svg width="79" height="79" viewBox="0 0 79 79" fill="none" xmlns="http://www.w3.org/2000/svg">
<path d="M39.4514 0C17.7104 0 0.0227356 17.6877 0.0227356 39.4287C0.0227356 61.1696 17.7104 78.8573 39.4514 78.8573C61.1924 78.8573 78.8801 61.1696 78.8801 39.4287C78.8801 17.6877 61.1924 0 39.4514 0ZM39.4514 70.9716C22.0594 70.9716 7.90847 56.8206 7.90847 39.4287C7.90847 22.0367 22.0594 7.88573 39.4514 7.88573C56.8434 7.88573 70.9943 22.0367 70.9943 39.4287C70.9943 56.8206 56.8434 70.9716 39.4514 70.9716Z" fill="#8A31A0"/>
<path d="M50.6018 50.5793C48.4255 52.7614 45.6559 54.2559 42.6372 54.877C40.5343 55.2989 38.3685 55.2989 36.2656 54.877C35.2542 54.6671 34.2653 54.3608 33.3124 53.9623C32.3769 53.5627 31.4807 53.0769 30.6352 52.5113C28.9589 51.3685 27.5118 49.9214 26.369 48.2451L19.8317 52.6493C20.6794 53.9071 21.6533 55.0899 22.7218 56.1545C24.9157 58.3559 27.5224 60.1027 30.3926 61.2948C33.2627 62.4869 36.3399 63.1009 39.4478 63.1017C42.5557 63.1024 45.6332 62.4898 48.5039 61.299C51.3746 60.1083 53.9822 58.3627 56.1771 56.1624C57.2495 55.0939 58.2273 53.911 59.0711 52.6493L52.5338 48.2451C51.97 49.0771 51.3234 49.8617 50.6018 50.5793V50.5793Z" fill="#8A31A0"/>
<path d="M25.6514 39.4285C28.9178 39.4285 31.5657 36.7805 31.5657 33.5142C31.5657 30.2478 28.9178 27.5999 25.6514 27.5999C22.385 27.5999 19.7371 30.2478 19.7371 33.5142C19.7371 36.7805 22.385 39.4285 25.6514 39.4285Z" fill="#8A31A0"/>
<path d="M53.2515 31.5427C45.3657 31.5427 43.3943 39.4285 43.3943 39.4285H63.1086C63.1086 39.4285 61.1332 31.5427 53.2515 31.5427Z" fill="#8A31A0"/>
</svg>
