<svg width="141" height="67" viewBox="0 0 141 67" fill="none" xmlns="http://www.w3.org/2000/svg">
<path d="M13.2765 24.6933V33.3143H43.7604V24.6933H13.2765ZM0.517378 40.0732V49.246H62.6577V40.0732H0.517378ZM26.1735 36.073V55.3841C26.1735 56.2807 25.7597 56.5566 24.3804 56.5566C23.001 56.6256 17.5525 56.6256 13.6903 56.4187C15.2076 58.9705 17.0697 63.2465 17.6905 66.0742C23.3459 66.0742 27.9667 65.9363 31.622 64.4879C35.2773 63.1086 36.4498 60.5567 36.4498 55.66V36.073H26.1735ZM40.45 24.6933V26.4865C37.9671 29.4521 31.8289 33.7281 26.1735 36.073C27.6219 37.5214 30.1047 40.2801 31.2772 42.0043C38.8637 38.9697 46.1054 34.073 51.4159 29.2452L45.0708 24.2105L43.0018 24.6933H40.45ZM1.06912 11.6583V27.6589H10.4488V20.4173H52.2435V27.6589H62.106V11.6583H1.06912ZM47.5537 1.451C46.0364 5.31322 43.2087 10.4169 40.7258 13.7963L48.6572 16.624C51.3469 13.6584 54.8643 9.03751 58.0369 4.48561L47.5537 1.451ZM7.00039 5.38219C9.20737 8.20989 11.6902 12.0721 12.5868 14.6239L21.6906 10.4169C20.5871 7.79608 17.8974 4.20973 15.5524 1.58894L7.00039 5.38219ZM24.6562 3.58902C26.5874 6.69259 28.6564 10.8996 29.3461 13.5894L38.8637 9.93409C37.9671 7.17536 35.6912 3.17521 33.5531 0.278543L24.6562 3.58902ZM84.1758 4.48561V14.1412H133.143V4.48561H84.1758ZM91.9692 22.9001C97.0729 27.0382 104.728 33.0384 108.246 36.6248L115.418 29.0383C111.556 25.5899 103.556 20.0034 98.6591 16.3481L91.9692 22.9001ZM130.316 4.48561V6.55465C130.04 37.4524 129.764 52.4875 127.143 55.0393C126.384 55.9359 125.557 56.2807 124.039 56.2807C121.626 56.2807 117.212 56.2807 111.694 55.9359C113.487 58.6256 115.005 62.8327 115.074 65.4535C119.625 65.5914 125.143 65.7294 128.591 65.1776C131.971 64.6259 134.316 63.4534 136.661 59.936C139.557 55.729 140.178 43.8664 140.592 9.52029C140.592 8.20989 140.592 4.48561 140.592 4.48561H130.316ZM83.0033 48.1425L86.3828 58.2808C97.3487 54.2806 112.039 48.9701 125.35 43.7975L123.488 34.6247C109.142 39.7973 93.0037 45.3148 83.0033 48.1425Z" fill="white"/>
</svg>
