<svg width="23" height="112" viewBox="0 0 23 112" fill="none" xmlns="http://www.w3.org/2000/svg">
<path d="M18.1835 39.9529C18.1835 40.9562 18 41.8127 17.6329 42.5224C17.2659 43.232 16.7336 43.8621 16.0362 44.4127L14.8616 43.2381C15.4245 42.8344 15.8527 42.3694 16.1464 41.8433C16.4278 41.3172 16.5685 40.6687 16.5685 39.8979C16.5685 39.1393 16.4033 38.5336 16.0729 38.0809C15.7426 37.616 15.2899 37.3835 14.7148 37.3835C14.2376 37.3835 13.8522 37.4936 13.5586 37.7139C13.2649 37.9341 13.0264 38.2339 12.8428 38.6132C12.6471 38.9802 12.4758 39.384 12.3289 39.8245C12.1699 40.2649 12.0047 40.7054 11.8334 41.1459C11.6499 41.5864 11.4296 41.9901 11.1727 42.3572C10.9035 42.7242 10.5548 43.024 10.1266 43.2565C9.69835 43.4767 9.16 43.5868 8.51153 43.5868C7.78965 43.5868 7.17788 43.4155 6.67623 43.0729C6.16235 42.7181 5.77082 42.2409 5.50165 41.6414C5.22023 41.0296 5.07953 40.3445 5.07953 39.5859C5.07953 38.7539 5.2447 38.0075 5.57506 37.3468C5.89318 36.6861 6.31529 36.1478 6.84141 35.7318L8.016 36.9064C7.57553 37.2856 7.24518 37.6955 7.02494 38.136C6.8047 38.5642 6.69459 39.0598 6.69459 39.6226C6.69459 40.3078 6.84753 40.8522 7.15341 41.256C7.44706 41.6598 7.86306 41.8616 8.40141 41.8616C8.82965 41.8616 9.17835 41.7515 9.44753 41.5313C9.70447 41.2988 9.92471 40.9991 10.1082 40.632C10.2918 40.2649 10.4631 39.8612 10.6221 39.4207C10.7689 38.968 10.9341 38.5214 11.1176 38.0809C11.3012 37.6405 11.5336 37.2367 11.8151 36.8696C12.0965 36.5026 12.4635 36.2089 12.9162 35.9887C13.3567 35.7562 13.9134 35.64 14.5864 35.64C15.712 35.64 16.5929 36.0315 17.2292 36.8146C17.8654 37.5854 18.1835 38.6315 18.1835 39.9529ZM18.1835 29.7514C18.1835 30.6079 17.9816 31.3848 17.5779 32.0823C17.1741 32.7674 16.6296 33.3119 15.9445 33.7157C15.2471 34.1072 14.4762 34.303 13.632 34.303C12.7755 34.303 12.0047 34.1072 11.3195 33.7157C10.6344 33.3119 10.096 32.7674 9.70447 32.0823C9.30071 31.3848 9.09882 30.6079 9.09882 29.7514C9.09882 29.0785 9.22729 28.4545 9.48423 27.8794C9.72894 27.3044 10.0899 26.8088 10.5671 26.3928L11.6682 27.494C11.3501 27.7632 11.1115 28.0935 10.9525 28.4851C10.7812 28.8644 10.6955 29.2865 10.6955 29.7514C10.6955 30.302 10.824 30.7914 11.0809 31.2197C11.3256 31.6479 11.6682 31.9844 12.1087 32.2291C12.5492 32.4738 13.0569 32.5961 13.632 32.5961C14.2071 32.5961 14.7148 32.4738 15.1553 32.2291C15.5958 31.9844 15.9445 31.6479 16.2014 31.2197C16.4584 30.7914 16.5868 30.302 16.5868 29.7514C16.5868 29.2865 16.5073 28.8644 16.3482 28.4851C16.1769 28.0935 15.9322 27.7571 15.6141 27.4757L16.7153 26.3928C17.1802 26.7966 17.5412 27.2921 17.7981 27.8794C18.0551 28.4545 18.1835 29.0785 18.1835 29.7514ZM18 24.7547H9.28235V23.1029H18V24.7547ZM13.0264 23.1029L12.7511 23.7269C11.6376 23.7269 10.7506 23.47 10.0899 22.9561C9.42918 22.4422 9.09882 21.702 9.09882 20.7354C9.09882 20.2949 9.17835 19.8973 9.33741 19.5425C9.48423 19.1876 9.73506 18.8573 10.0899 18.5514L11.2094 19.6342C11.0136 19.8178 10.8729 20.0196 10.7873 20.2399C10.7016 20.4601 10.6588 20.7171 10.6588 21.0107C10.6588 21.6225 10.8546 22.1241 11.2461 22.5156C11.6376 22.9072 12.2311 23.1029 13.0264 23.1029ZM18.1835 13.6926C18.1835 14.5491 17.9816 15.3199 17.5779 16.0051C17.1741 16.6903 16.6296 17.2347 15.9445 17.6385C15.2471 18.0423 14.4701 18.2441 13.6136 18.2441C12.7694 18.2441 12.0108 18.0423 11.3379 17.6385C10.6527 17.2347 10.1082 16.6903 9.70447 16.0051C9.30071 15.3199 9.09882 14.5491 9.09882 13.6926C9.09882 12.8484 9.30071 12.0837 9.70447 11.3985C10.096 10.7011 10.6344 10.1505 11.3195 9.74672C12.0047 9.34296 12.7694 9.14108 13.6136 9.14108C14.4701 9.14108 15.2471 9.34296 15.9445 9.74672C16.6296 10.1505 17.1741 10.7011 17.5779 11.3985C17.9816 12.0837 18.1835 12.8484 18.1835 13.6926ZM16.5868 13.6926C16.5868 13.142 16.4584 12.6526 16.2014 12.2244C15.9445 11.7961 15.5958 11.4597 15.1553 11.215C14.7026 10.9703 14.1887 10.8479 13.6136 10.8479C13.0508 10.8479 12.5492 10.9764 12.1087 11.2333C11.6682 11.478 11.3256 11.8145 11.0809 12.2427C10.824 12.6587 10.6955 13.142 10.6955 13.6926C10.6955 14.2432 10.824 14.7326 11.0809 15.1608C11.3256 15.5891 11.6682 15.9255 12.1087 16.1703C12.5492 16.415 13.0508 16.5373 13.6136 16.5373C14.1887 16.5373 14.7026 16.415 15.1553 16.1703C15.5958 15.9255 15.9445 15.5891 16.2014 15.1608C16.4584 14.7326 16.5868 14.2432 16.5868 13.6926ZM18 7.27997H4.896L4.896 5.62821H18V7.27997ZM18 3.2115H4.896L4.896 1.55974H18V3.2115Z" fill="white"/>
<path d="M9.94898 111.029C10.5172 111.609 11.4484 111.619 12.0289 111.051L21.4881 101.791C22.0685 101.223 22.0784 100.291 21.5102 99.7109C20.942 99.1305 20.0107 99.1206 19.4303 99.6888L11.0221 107.92L2.79096 99.5118C2.22272 98.9313 1.29151 98.9214 0.711048 99.4897C0.130586 100.058 0.120681 100.989 0.688924 101.57L9.94898 111.029ZM10.0293 62.9795L9.52928 109.984L12.4707 110.016L12.9707 63.0108L10.0293 62.9795Z" fill="white"/>
</svg>
