<svg width="74" height="74" viewBox="0 0 74 74" fill="none" xmlns="http://www.w3.org/2000/svg">
<path d="M36.519 0.49585C16.3824 0.49585 0 16.8783 0 37.0149C0 57.1515 16.3824 73.5339 36.519 73.5339C56.6556 73.5339 73.0381 57.1515 73.0381 37.0149C73.0381 16.8783 56.6556 0.49585 36.519 0.49585ZM7.30381 37.0149C7.30381 33.7318 7.87351 30.5802 8.87778 27.6331L14.6076 33.363L21.9114 40.6668V47.9706L29.2152 55.2744L32.8671 58.9263V65.9781C18.4823 64.1705 7.30381 51.8854 7.30381 37.0149ZM59.6356 54.8106C57.2509 52.8897 53.6355 51.6225 51.1267 51.6225V47.9706C51.1267 46.0335 50.3572 44.1758 48.9874 42.806C47.6177 41.4363 45.7599 40.6668 43.8229 40.6668H29.2152V29.7111C31.1523 29.7111 33.0101 28.9416 34.3798 27.5718C35.7495 26.2021 36.519 24.3444 36.519 22.4073V18.7554H40.1709C42.108 18.7554 43.9658 17.9859 45.3355 16.6161C46.7052 15.2464 47.4748 13.3887 47.4748 11.4516V9.95063C58.1675 14.2927 65.7343 24.781 65.7343 37.0149C65.7336 43.4594 63.588 49.7204 59.6356 54.8106V54.8106Z" fill="#8A31A0"/>
</svg>
